<svg version="1.1" xmlns="http://www.w3.org/2000/svg" xmlns:xlink="http://www.w3.org/1999/xlink" x="0px" y="0px" width="305.3px"
	 height="305.3px" viewBox="0 0 305.3 305.3" class="icon icon-flower" xml:space="preserve">
<g id="petals">
	<path id="_x31_" class="petal" d="M227.2,78.4c0,41-33.3,74.3-74.3,74.3c-41,0-74.3-33.3-74.3-74.3c0-41,33.3-74.3,74.3-74.3
		C194,4.1,227.2,37.4,227.2,78.4z"/>
	<path id="_x32_" class="petal" d="M254.3,180.4c-35.6,20.3-81,7.9-101.3-27.7c-20.3-35.6-7.9-81,27.7-101.3
		c35.6-20.3,81-7.9,101.3,27.8C302.3,114.7,289.9,160.1,254.3,180.4z"/>
	<path id="_x33_" class="petal" d="M179,254.4c-35.3-20.9-47-66.4-26.1-101.7c20.9-35.3,66.5-47,101.8-26.1
		c35.3,20.9,46.9,66.5,26,101.8C259.9,263.6,214.3,275.3,179,254.4z"/>
	<path id="_x34_" class="petal" d="M77.5,225.7c0.7-41,34.5-73.7,75.5-73c41,0.7,73.7,34.5,73,75.5c-0.7,41-34.5,73.7-75.5,73
		C109.5,300.5,76.8,266.7,77.5,225.7z"/>
	<path id="_x35_" class="petal" d="M52.2,123.2c36-19.7,81.1-6.5,100.8,29.4c19.7,36,6.5,81.1-29.4,100.8
		c-36,19.7-81.1,6.5-100.8-29.4C3,188.1,16.2,142.9,52.2,123.2z"/>
	<path id="_x36_" class="petal" d="M128.6,50.5c34.9,21.5,45.8,67.2,24.4,102.2c-21.5,34.9-67.2,45.8-102.2,24.4
		C15.9,155.5,5,109.8,26.5,74.9C47.9,39.9,93.7,29,128.6,50.5z"/>
</g>

	<path class="flower-center" d="M203.8,152.7c0,28.2-22.9,51.1-51.1,51.1c-28.2,0-51.1-22.9-51.1-51.1c0-28.2,22.9-51.1,51.1-51.1
		C180.9,101.5,203.8,124.4,203.8,152.7z"/>

</svg>
