<svg xmlns="http://www.w3.org/2000/svg" width="305.3" height="305.3" viewBox="0 0 305.3 305.3" class="icon icon-flower"><path class="petal" d="M227.2 78.4c0 41-33.3 74.3-74.3 74.3s-74.3-33.3-74.3-74.3 33.3-74.3 74.3-74.3c41.1 0 74.3 33.3 74.3 74.3z"/><path class="petal" d="M254.3 180.4c-35.6 20.3-81 7.9-101.3-27.7-20.3-35.6-7.9-81 27.7-101.3 35.6-20.3 81-7.9 101.3 27.8 20.3 35.5 7.9 80.9-27.7 101.2z"/><path class="petal" d="M179 254.4c-35.3-20.9-47-66.4-26.1-101.7s66.5-47 101.8-26.1 46.9 66.5 26 101.8c-20.8 35.2-66.4 46.9-101.7 26z"/><path class="petal" d="M77.5 225.7c.7-41 34.5-73.7 75.5-73 41 .7 73.7 34.5 73 75.5-.7 41-34.5 73.7-75.5 73-41-.7-73.7-34.5-73-75.5z"/><path class="petal" d="M52.2 123.2c36-19.7 81.1-6.5 100.8 29.4 19.7 36 6.5 81.1-29.4 100.8-36 19.7-81.1 6.5-100.8-29.4-19.8-35.9-6.6-81.1 29.4-100.8z"/><path class="petal" d="M128.6 50.5c34.9 21.5 45.8 67.2 24.4 102.2-21.5 34.9-67.2 45.8-102.2 24.4C15.9 155.5 5 109.8 26.5 74.9c21.4-35 67.2-45.9 102.1-24.4z"/><path class="flower-center" d="M203.8 152.7c0 28.2-22.9 51.1-51.1 51.1-28.2 0-51.1-22.9-51.1-51.1 0-28.2 22.9-51.1 51.1-51.1 28.2-.1 51.1 22.8 51.1 51.1z"/></svg>