<svg width="0" height="0" style="position: absolute;" xmlns="http://www.w3.org/2000/svg" xmlns:xlink="http://www.w3.org/1999/xlink"><symbol viewBox="0 0 100 100" id="fi-graph-pie"><path d="M54.193 12.87c-.731 0-1.325.594-1.325 1.326 0 .068.029.127.039.193h-.039v31.438c0 .732.594 1.326 1.325 1.326H85.63v-.039c.066.01.125.039.194.039.731 0 1.325-.594 1.325-1.326-.188-18.12-14.836-32.768-32.956-32.957z"/><path d="M79.485 53.46c0-.732-.593-1.326-1.325-1.326H49.261a1.326 1.326 0 0 1-1.325-1.326V22.015h-.039c.01-.066.039-.125.039-.193 0-.733-.594-1.326-1.326-1.326-.032 0-.058.016-.089.018v-.009c-.118-.001-.235-.009-.353-.009-18.4 0-33.317 14.917-33.317 33.317S27.768 87.13 46.168 87.13s33.317-14.917 33.317-33.317c0-.106-.005-.211-.007-.318 0-.013.007-.023.007-.035z"/></symbol><symbol viewBox="0 0 100 100" id="icon-torso"><path d="M80.161 60.441l-15.66-7.47-6.622-3.159c2.892-1.822 5.241-4.634 6.778-8.022a21.727 21.727 0 0 0 1.946-8.99c0-1.827-.29-3.562-.694-5.236C63.94 19.453 57.605 13.477 50 13.477c-7.461 0-13.701 5.763-15.792 13.645-.482 1.808-.815 3.688-.815 5.68 0 3.459.808 6.684 2.181 9.489 1.587 3.254 3.94 5.937 6.804 7.662l-6.342 2.953-16.168 7.53c-1.404.658-2.327 2.242-2.327 4.011v17.765c0 2.381 1.659 4.312 3.708 4.312h57.505c2.048 0 3.708-1.93 3.708-4.312V64.446c-.002-1.763-.91-3.332-2.301-4.005z"/></symbol><symbol viewBox="0 0 100 100" id="icon-widget"><path d="M88.553 43.441l-10.276-1.013a29.016 29.016 0 0 0-2.936-7.059l6.561-7.993a2.158 2.158 0 0 0-.145-2.893l-6.24-6.243a2.153 2.153 0 0 0-2.894-.142L64.63 24.66a29.042 29.042 0 0 0-7.06-2.936l-1.011-10.278A2.158 2.158 0 0 0 54.412 9.5h-8.823a2.16 2.16 0 0 0-2.148 1.946L42.43 21.727a28.903 28.903 0 0 0-7.054 2.936l-7.998-6.564c-.4-.329-.884-.49-1.369-.49-.555 0-1.105.212-1.525.633l-6.24 6.241a2.158 2.158 0 0 0-.145 2.893l6.566 7.996a28.914 28.914 0 0 0-2.936 7.057l-10.281 1.013A2.154 2.154 0 0 0 9.5 45.587v8.825c0 1.11.843 2.04 1.947 2.146l10.281 1.013a28.87 28.87 0 0 0 2.936 7.054l-6.562 7.994a2.15 2.15 0 0 0 .14 2.895l6.24 6.242a2.155 2.155 0 0 0 2.894.142l7.993-6.562a29.029 29.029 0 0 0 7.06 2.938l1.011 10.279a2.158 2.158 0 0 0 2.148 1.946h8.823c1.11 0 2.039-.842 2.148-1.946l1.011-10.278a28.853 28.853 0 0 0 7.06-2.939l7.993 6.562a2.156 2.156 0 0 0 2.894-.142l6.24-6.242a2.15 2.15 0 0 0 .14-2.895l-6.557-7.991a29.019 29.019 0 0 0 2.936-7.057l10.276-1.013a2.157 2.157 0 0 0 1.947-2.146v-8.825a2.156 2.156 0 0 0-1.946-2.146zM50.002 61.95c-6.603 0-11.953-5.351-11.953-11.95 0-6.602 5.351-11.951 11.953-11.951C56.6 38.049 61.95 43.398 61.95 50c.001 6.599-5.35 11.95-11.948 11.95z"/></symbol><symbol viewBox="0 0 100 100" id="icon-wrench"><path d="M86.257 23.405l-3.866 3.866-3.737 3.737-4.759 4.759a9.08 9.08 0 0 1-9.663-9.663l4.759-4.759 3.737-3.737 3.866-3.866a.645.645 0 0 0 0-.911c-.046-.046-.101-.074-.155-.103l.001-.001-.01-.004a.649.649 0 0 0-.102-.043 21.424 21.424 0 0 0-8.749-1.878c-11.939 0-21.618 9.679-21.618 21.618 0 2.28.358 4.475 1.012 6.538L24.428 61.504c-7.545.122-13.627 6.267-13.627 13.842 0 7.65 6.203 13.853 13.853 13.853 7.574 0 13.72-6.083 13.842-13.628l22.546-22.546a21.602 21.602 0 0 0 6.539 1.012c11.939 0 21.618-9.679 21.618-21.618 0-3.118-.686-6.066-1.877-8.742a.605.605 0 0 0-.05-.118l-.022-.052-.007.007c-.024-.037-.041-.078-.074-.111a.646.646 0 0 0-.912.002zM30.378 75.346a5.724 5.724 0 1 1-11.449 0 5.724 5.724 0 0 1 11.449 0z"/></symbol></svg>